<?xml version="1.0" encoding="utf-8"?>
<!-- Generator: Adobe Illustrator 24.1.0, SVG Export Plug-In . SVG Version: 6.00 Build 0)  -->
<svg version="1.2" baseProfile="tiny" id="Warstwa_1"
	 xmlns="http://www.w3.org/2000/svg" xmlns:xlink="http://www.w3.org/1999/xlink" x="0px" y="0px" viewBox="0 0 520 520"
	 xml:space="preserve">
<g display="none">
	<path display="inline" d="M517,54.9c0,111.12,0,222.23,0,333.35c-1.32-0.95-2.81-1.74-3.95-2.86c-11.16-11-22.36-21.96-33.28-33.2
		c-1.72-1.77-2.91-4.81-2.96-7.29c-0.28-14.29-0.13-28.58-0.15-42.88c0-1.4-0.19-2.8-0.24-3.44
		c-42.93,42.64-85.99,85.4-128.92,128.03c30.38,0,61.31,0,93.17,0c-7.59-7.36-14.58-14.12-21.09-20.43
		c10-9.94,19.26-19.16,29.39-29.24c0.77,1.09,1.64,2.77,2.92,4.05c20.3,20.25,40.64,40.45,61,60.64c1.27,1.26,2.73,2.34,4.11,3.51
		c0,0.33,0,0.67,0,1c-1.23,1.09-2.52,2.13-3.69,3.29c-20.59,20.45-41.16,40.91-61.74,61.36c-1.26,1.25-2.59,2.44-3.65,3.43
		c-9.58-9.52-18.79-18.68-28.93-28.76c6.26-5.73,12.71-11.64,19.17-17.55c-0.16-0.37-0.33-0.74-0.49-1.11c-1.92,0-3.85,0-5.77,0
		c-106.53,0-213.06,0.02-319.59-0.05c-5.33,0-10.77-0.21-15.96-1.27c-27.32-5.6-45.08-28.05-45.09-56.81
		c-0.04-106.57-0.01-213.15-0.01-319.72c0-1.88,0-3.76,0-5.64c-0.5-0.22-1-0.44-1.5-0.66c-6,6.38-11.99,12.76-18.79,20
		C21.32,92.73,12.16,83.29,3,73.86c0-0.33,0-0.67,0-1c1.39-1.12,2.9-2.13,4.16-3.38c20.48-20.31,40.93-40.66,61.4-60.99
		c1.24-1.23,2.55-2.4,3.01-2.83c23.34,23.18,46.23,45.92,68.38,67.91c-8.89,8.81-18.19,18.02-28.7,28.44
		c-6.35-6.37-13.18-13.22-19.51-19.56c0,29.94,0,60.73,0,90.73c43.18-42.94,86.58-86.1,129.98-129.26c-1.17,0-2.79,0-4.4,0
		c-15.05,0-30.1,0.08-45.15-0.09c-1.93-0.02-4.36-0.8-5.69-2.11C153.7,29.25,141.12,16.6,128.49,4C241.6,4,354.7,4,467.81,4
		c0.75,0.3,1.47,0.73,2.25,0.88c19.55,3.71,33.6,14.59,41.76,32.55C514.3,42.91,515.31,49.06,517,54.9z M121.37,426.91
		c17.35,0,34.56,0.09,51.77-0.12c1.85-0.02,4.06-1.39,5.45-2.77c98.46-97.77,196.86-195.59,295.17-293.51
		c1.64-1.63,2.72-4.54,2.78-6.89c0.3-10.3,0.13-20.62,0.13-30.92c0-6.4,0-12.8,0-18.89C358.22,191.52,239.92,309.08,121.37,426.91z
		 M91.38,396.56C209.68,278.92,327.96,161.3,446.02,43.91c-15.58,0-31.95,0.14-48.3-0.1c-4.36-0.06-7.39,1.24-10.47,4.3
		c-96.32,95.91-192.7,191.77-289.24,287.46c-4.9,4.86-7.02,9.58-6.79,16.44C91.73,367.07,91.38,382.16,91.38,396.56z M233.72,426.9
		c17.98,0,35.51,0.08,53.04-0.13c1.66-0.02,3.57-1.58,4.89-2.89c60.73-60.29,121.43-120.62,182.02-181.05
		c1.65-1.64,2.84-4.52,2.88-6.84c0.25-15.63,0.14-31.27,0.11-46.9c0-1.19-0.25-2.38-0.35-3.36
		C395.49,266.07,314.85,346.24,233.72,426.9z M91.38,283.58c80.36-79.92,160.88-159.99,241-239.67c-15.2,0-31.41-0.15-47.62,0.15
		c-2.62,0.05-5.84,1.39-7.7,3.23c-29.94,29.49-59.7,59.16-89.5,88.79c-30.98,30.8-61.98,61.59-92.91,92.45
		c-1.42,1.42-3.11,3.47-3.13,5.25C91.29,250.68,91.38,267.59,91.38,283.58z"/>
	<path fill="#FFFFFF" d="M3,73.86c9.16,9.43,18.32,18.86,27.95,28.77c6.8-7.24,12.8-13.62,18.79-20c0.5,0.22,1,0.44,1.5,0.66
		c0,1.88,0,3.76,0,5.64c0,106.57-0.02,213.15,0.01,319.72c0.01,28.76,17.77,51.21,45.09,56.81c5.19,1.06,10.63,1.27,15.96,1.27
		c106.53,0.07,213.06,0.05,319.59,0.05c1.92,0,3.85,0,5.77,0c0.16,0.37,0.33,0.74,0.49,1.11c-6.45,5.91-12.91,11.82-19.17,17.55
		c10.14,10.08,19.35,19.24,28.93,28.76c1.06-0.99,2.39-2.18,3.65-3.43c20.58-20.45,41.15-40.91,61.74-61.36
		c1.17-1.16,2.46-2.2,3.69-3.29c0,22.96,0,45.91,0,68.87c-171.33,0-342.67,0-514,0C3,367.95,3,220.91,3,73.86z"/>
	<path fill="#FFFFFF" d="M128.49,4c12.63,12.6,25.21,25.25,37.98,37.71c1.33,1.3,3.76,2.09,5.69,2.11
		c15.05,0.17,30.1,0.09,45.15,0.09c1.61,0,3.23,0,4.4,0c-43.4,43.17-86.8,86.32-129.98,129.26c0-29.99,0-60.78,0-90.73
		c6.32,6.34,13.16,13.19,19.51,19.56c10.51-10.42,19.81-19.63,28.7-28.44c-22.15-22-45.04-44.73-68.38-67.91
		c-0.47,0.44-1.77,1.6-3.01,2.83C48.09,28.82,27.64,49.17,7.16,69.48C5.9,70.73,4.39,71.74,3,72.87C3,49.97,3,27.07,3,4
		C44.83,4,86.66,4,128.49,4z"/>
	<path fill="#FFFFFF" d="M517,445.14c-1.37-1.16-2.83-2.24-4.11-3.51c-20.36-20.19-40.7-40.39-61-60.64
		c-1.28-1.28-2.15-2.96-2.92-4.05c-10.13,10.08-19.4,19.3-29.39,29.24c6.51,6.31,13.49,13.07,21.09,20.43c-31.86,0-62.79,0-93.17,0
		c42.93-42.64,85.99-85.4,128.92-128.03c0.05,0.63,0.23,2.03,0.24,3.44c0.02,14.29-0.13,28.59,0.15,42.88
		c0.05,2.48,1.24,5.52,2.96,7.29c10.92,11.23,22.12,22.2,33.28,33.2c1.14,1.13,2.63,1.92,3.95,2.86
		C517,407.21,517,426.17,517,445.14z"/>
	<path fill="#FFFFFF" d="M517,54.9c-1.69-5.84-2.7-11.99-5.18-17.48c-8.15-17.96-22.2-28.83-41.76-32.55
		c-0.78-0.15-1.5-0.58-2.25-0.88c16.4,0,32.79,0,49.19,0C517,20.97,517,37.93,517,54.9z"/>
	<path fill="#FFFFFF" d="M121.37,426.91C239.92,309.08,358.22,191.52,476.68,73.79c0,6.09,0,12.49,0,18.89
		c0,10.31,0.17,20.62-0.13,30.92c-0.07,2.35-1.14,5.26-2.78,6.89c-98.3,97.92-196.71,195.75-295.17,293.51
		c-1.4,1.39-3.61,2.75-5.45,2.77C155.93,426.99,138.72,426.91,121.37,426.91z"/>
	<path fill="#FFFFFF" d="M91.38,396.56c0-14.4,0.35-29.49-0.16-44.55c-0.23-6.86,1.89-11.58,6.79-16.44
		c96.54-95.69,192.92-191.55,289.24-287.46c3.07-3.06,6.11-4.36,10.47-4.3c16.36,0.24,32.72,0.1,48.3,0.1
		C327.96,161.3,209.68,278.92,91.38,396.56z"/>
	<path fill="#FFFFFF" d="M233.72,426.9c81.13-80.66,161.77-160.83,242.59-241.17c0.11,0.98,0.35,2.17,0.35,3.36
		c0.03,15.63,0.14,31.27-0.11,46.9c-0.04,2.32-1.23,5.2-2.88,6.84c-60.59,60.44-121.29,120.76-182.02,181.05
		c-1.32,1.31-3.24,2.87-4.89,2.89C269.23,426.98,251.7,426.9,233.72,426.9z"/>
	<path fill="#FFFFFF" d="M91.38,283.58c0-15.99-0.1-32.9,0.14-49.81c0.02-1.78,1.71-3.83,3.13-5.25
		c30.93-30.86,61.93-61.65,92.91-92.45c29.8-29.63,59.56-59.3,89.5-88.79c1.86-1.83,5.09-3.18,7.7-3.23
		c16.2-0.29,32.41-0.15,47.62-0.15C252.26,123.59,171.74,203.66,91.38,283.58z"/>
</g>
<g>
	<path display="none" fill="#FFFFFF" d="M270.87,4C356.91,4,442.96,4,529,4c0,177.67,0,355.33,0,533c-178.33,0-356.67,0-535,0
		C-6,359.33-6,181.67-6,4c86.74,0,173.48,0,260.21,0c-17.54,7.32-29.68,18.53-29.64,39.21c0.11,62.55-0.14,125.1,0.29,187.64
		c0.05,6.89,2.28,14.5,5.74,20.49c8.66,14.99,26.18,21.3,42.18,16.65c16.57-4.82,27.57-19.15,27.62-37.13
		c0.16-59.78-0.58-119.58,0.39-179.34C301.18,28.08,292.8,12.37,270.87,4z M33.77,266.86c0.46,7.31,0.86,16.63,1.67,25.92
		c11.05,126.64,135.16,222.49,261.09,201.69c123.99-20.47,206.76-128.37,192.52-252.96c-7.26-63.53-38-114.77-89.23-153.41
		c-17.41-13.13-40.11-9.97-52.86,6.47c-13.2,17.03-10.41,39.4,6.72,53.56c2.4,1.99,4.92,3.83,7.3,5.85
		c66.49,56.2,72.24,155.62,12.7,219.15c-59.22,63.19-160,64.03-220.51,1.85c-62.62-64.35-55.74-167.1,14.38-224.26
		c7.57-6.17,14.25-15.44,17.34-24.61c5.15-15.28-2.94-32.05-16.24-40.4c-13.13-8.25-30.4-7.53-43.86,2.76
		C66.61,132.94,37.28,192.24,33.77,266.86z"/>
	<path d="M270.87,4c21.93,8.37,30.32,24.08,29.93,47.51c-0.98,59.77-0.24,119.56-0.39,179.34c-0.05,17.98-11.05,32.32-27.62,37.13
		c-16,4.65-33.52-1.67-42.18-16.65c-3.46-5.99-5.7-13.6-5.74-20.49c-0.43-62.54-0.18-125.09-0.29-187.64
		c-0.04-20.68,12.1-31.89,29.64-39.21C259.77,4,265.32,4,270.87,4z"/>
	<path d="M33.77,266.86c3.51-74.62,32.84-133.92,91.01-178.39c13.45-10.29,30.73-11.01,43.86-2.76c13.3,8.35,21.39,25.12,16.24,40.4
		c-3.09,9.17-9.77,18.44-17.34,24.61c-70.12,57.16-77,159.91-14.38,224.26c60.51,62.18,161.29,61.34,220.51-1.85
		c59.54-63.53,53.79-162.95-12.7-219.15c-2.38-2.01-4.9-3.86-7.3-5.85c-17.12-14.16-19.92-36.53-6.72-53.56
		c12.75-16.44,35.45-19.61,52.86-6.47c51.23,38.65,81.97,89.88,89.23,153.41c14.24,124.58-68.53,232.48-192.52,252.96
		C170.59,515.26,46.48,419.41,35.44,292.77C34.63,283.49,34.23,274.17,33.77,266.86z"/>
</g>
</svg>
