<?xml version="1.0" encoding="utf-8"?>
<!-- Generator: Adobe Illustrator 24.1.0, SVG Export Plug-In . SVG Version: 6.00 Build 0)  -->
<svg version="1.2" baseProfile="tiny" id="Warstwa_1"
	 xmlns="http://www.w3.org/2000/svg" xmlns:xlink="http://www.w3.org/1999/xlink" x="0px" y="0px" viewBox="0 0 520 520"
	 xml:space="preserve">
<g display="none">
	<path display="inline" d="M517,54.9c0,111.12,0,222.23,0,333.35c-1.32-0.95-2.81-1.74-3.95-2.86c-11.16-11-22.36-21.96-33.28-33.2
		c-1.72-1.77-2.91-4.81-2.96-7.29c-0.28-14.29-0.13-28.58-0.15-42.88c0-1.4-0.19-2.8-0.24-3.44
		c-42.93,42.64-85.99,85.4-128.92,128.03c30.38,0,61.31,0,93.17,0c-7.59-7.36-14.58-14.12-21.09-20.43
		c10-9.94,19.26-19.16,29.39-29.24c0.77,1.09,1.64,2.77,2.92,4.05c20.3,20.25,40.64,40.45,61,60.64c1.27,1.26,2.73,2.34,4.11,3.51
		c0,0.33,0,0.67,0,1c-1.23,1.09-2.52,2.13-3.69,3.29c-20.59,20.45-41.16,40.91-61.74,61.36c-1.26,1.25-2.59,2.44-3.65,3.43
		c-9.58-9.52-18.79-18.68-28.93-28.76c6.26-5.73,12.71-11.64,19.17-17.55c-0.16-0.37-0.33-0.74-0.49-1.11c-1.92,0-3.85,0-5.77,0
		c-106.53,0-213.06,0.02-319.59-0.05c-5.33,0-10.77-0.21-15.96-1.27c-27.32-5.6-45.08-28.05-45.09-56.81
		c-0.04-106.57-0.01-213.15-0.01-319.72c0-1.88,0-3.76,0-5.64c-0.5-0.22-1-0.44-1.5-0.66c-6,6.38-11.99,12.76-18.79,20
		C21.32,92.73,12.16,83.29,3,73.86c0-0.33,0-0.67,0-1c1.39-1.12,2.9-2.13,4.16-3.38c20.48-20.31,40.93-40.66,61.4-60.99
		c1.24-1.23,2.55-2.4,3.01-2.83c23.34,23.18,46.23,45.92,68.38,67.91c-8.89,8.81-18.19,18.02-28.7,28.44
		c-6.35-6.37-13.18-13.22-19.51-19.56c0,29.94,0,60.73,0,90.73c43.18-42.94,86.58-86.1,129.98-129.26c-1.17,0-2.79,0-4.4,0
		c-15.05,0-30.1,0.08-45.15-0.09c-1.93-0.02-4.36-0.8-5.69-2.11C153.7,29.25,141.12,16.6,128.49,4C241.6,4,354.7,4,467.81,4
		c0.75,0.3,1.47,0.73,2.25,0.88c19.55,3.71,33.6,14.59,41.76,32.55C514.3,42.91,515.31,49.06,517,54.9z M121.37,426.91
		c17.35,0,34.56,0.09,51.77-0.12c1.85-0.02,4.06-1.39,5.45-2.77c98.46-97.77,196.86-195.59,295.17-293.51
		c1.64-1.63,2.72-4.54,2.78-6.89c0.3-10.3,0.13-20.62,0.13-30.92c0-6.4,0-12.8,0-18.89C358.22,191.52,239.92,309.08,121.37,426.91z
		 M91.38,396.56C209.68,278.92,327.96,161.3,446.02,43.91c-15.58,0-31.95,0.14-48.3-0.1c-4.36-0.06-7.39,1.24-10.47,4.3
		c-96.32,95.91-192.7,191.77-289.24,287.46c-4.9,4.86-7.02,9.58-6.79,16.44C91.73,367.07,91.38,382.16,91.38,396.56z M233.72,426.9
		c17.98,0,35.51,0.08,53.04-0.13c1.66-0.02,3.57-1.58,4.89-2.89c60.73-60.29,121.43-120.62,182.02-181.05
		c1.65-1.64,2.84-4.52,2.88-6.84c0.25-15.63,0.14-31.27,0.11-46.9c0-1.19-0.25-2.38-0.35-3.36
		C395.49,266.07,314.85,346.24,233.72,426.9z M91.38,283.58c80.36-79.92,160.88-159.99,241-239.67c-15.2,0-31.41-0.15-47.62,0.15
		c-2.62,0.05-5.84,1.39-7.7,3.23c-29.94,29.49-59.7,59.16-89.5,88.79c-30.98,30.8-61.98,61.59-92.91,92.45
		c-1.42,1.42-3.11,3.47-3.13,5.25C91.29,250.68,91.38,267.59,91.38,283.58z"/>
	<path fill="#FFFFFF" d="M3,73.86c9.16,9.43,18.32,18.86,27.95,28.77c6.8-7.24,12.8-13.62,18.79-20c0.5,0.22,1,0.44,1.5,0.66
		c0,1.88,0,3.76,0,5.64c0,106.57-0.02,213.15,0.01,319.72c0.01,28.76,17.77,51.21,45.09,56.81c5.19,1.06,10.63,1.27,15.96,1.27
		c106.53,0.07,213.06,0.05,319.59,0.05c1.92,0,3.85,0,5.77,0c0.16,0.37,0.33,0.74,0.49,1.11c-6.45,5.91-12.91,11.82-19.17,17.55
		c10.14,10.08,19.35,19.24,28.93,28.76c1.06-0.99,2.39-2.18,3.65-3.43c20.58-20.45,41.15-40.91,61.74-61.36
		c1.17-1.16,2.46-2.2,3.69-3.29c0,22.96,0,45.91,0,68.87c-171.33,0-342.67,0-514,0C3,367.95,3,220.91,3,73.86z"/>
	<path fill="#FFFFFF" d="M128.49,4c12.63,12.6,25.21,25.25,37.98,37.71c1.33,1.3,3.76,2.09,5.69,2.11
		c15.05,0.17,30.1,0.09,45.15,0.09c1.61,0,3.23,0,4.4,0c-43.4,43.17-86.8,86.32-129.98,129.26c0-29.99,0-60.78,0-90.73
		c6.32,6.34,13.16,13.19,19.51,19.56c10.51-10.42,19.81-19.63,28.7-28.44c-22.15-22-45.04-44.73-68.38-67.91
		c-0.47,0.44-1.77,1.6-3.01,2.83C48.09,28.82,27.64,49.17,7.16,69.48C5.9,70.73,4.39,71.74,3,72.87C3,49.97,3,27.07,3,4
		C44.83,4,86.66,4,128.49,4z"/>
	<path fill="#FFFFFF" d="M517,445.14c-1.37-1.16-2.83-2.24-4.11-3.51c-20.36-20.19-40.7-40.39-61-60.64
		c-1.28-1.28-2.15-2.96-2.92-4.05c-10.13,10.08-19.4,19.3-29.39,29.24c6.51,6.31,13.49,13.07,21.09,20.43c-31.86,0-62.79,0-93.17,0
		c42.93-42.64,85.99-85.4,128.92-128.03c0.05,0.63,0.23,2.03,0.24,3.44c0.02,14.29-0.13,28.59,0.15,42.88
		c0.05,2.48,1.24,5.52,2.96,7.29c10.92,11.23,22.12,22.2,33.28,33.2c1.14,1.13,2.63,1.92,3.95,2.86
		C517,407.21,517,426.17,517,445.14z"/>
	<path fill="#FFFFFF" d="M517,54.9c-1.69-5.84-2.7-11.99-5.18-17.48c-8.15-17.96-22.2-28.83-41.76-32.55
		c-0.78-0.15-1.5-0.58-2.25-0.88c16.4,0,32.79,0,49.19,0C517,20.97,517,37.93,517,54.9z"/>
	<path fill="#FFFFFF" d="M121.37,426.91C239.92,309.08,358.22,191.52,476.68,73.79c0,6.09,0,12.49,0,18.89
		c0,10.31,0.17,20.62-0.13,30.92c-0.07,2.35-1.14,5.26-2.78,6.89c-98.3,97.92-196.71,195.75-295.17,293.51
		c-1.4,1.39-3.61,2.75-5.45,2.77C155.93,426.99,138.72,426.91,121.37,426.91z"/>
	<path fill="#FFFFFF" d="M91.38,396.56c0-14.4,0.35-29.49-0.16-44.55c-0.23-6.86,1.89-11.58,6.79-16.44
		c96.54-95.69,192.92-191.55,289.24-287.46c3.07-3.06,6.11-4.36,10.47-4.3c16.36,0.24,32.72,0.1,48.3,0.1
		C327.96,161.3,209.68,278.92,91.38,396.56z"/>
	<path fill="#FFFFFF" d="M233.72,426.9c81.13-80.66,161.77-160.83,242.59-241.17c0.11,0.98,0.35,2.17,0.35,3.36
		c0.03,15.63,0.14,31.27-0.11,46.9c-0.04,2.32-1.23,5.2-2.88,6.84c-60.59,60.44-121.29,120.76-182.02,181.05
		c-1.32,1.31-3.24,2.87-4.89,2.89C269.23,426.98,251.7,426.9,233.72,426.9z"/>
	<path fill="#FFFFFF" d="M91.38,283.58c0-15.99-0.1-32.9,0.14-49.81c0.02-1.78,1.71-3.83,3.13-5.25
		c30.93-30.86,61.93-61.65,92.91-92.45c29.8-29.63,59.56-59.3,89.5-88.79c1.86-1.83,5.09-3.18,7.7-3.23
		c16.2-0.29,32.41-0.15,47.62-0.15C252.26,123.59,171.74,203.66,91.38,283.58z"/>
</g>
<g display="none">
	<path fill="#FFFFFF" d="M270.87,4C356.91,4,442.96,4,529,4c0,177.67,0,355.33,0,533c-178.33,0-356.67,0-535,0
		C-6,359.33-6,181.67-6,4c86.74,0,173.48,0,260.21,0c-17.54,7.32-29.68,18.53-29.64,39.21c0.11,62.55-0.14,125.1,0.29,187.64
		c0.05,6.89,2.28,14.5,5.74,20.49c8.66,14.99,26.18,21.3,42.18,16.65c16.57-4.82,27.57-19.15,27.62-37.13
		c0.16-59.78-0.58-119.58,0.39-179.34C301.18,28.08,292.8,12.37,270.87,4z M33.77,266.86c0.46,7.31,0.86,16.63,1.67,25.92
		c11.05,126.64,135.16,222.49,261.09,201.69c123.99-20.47,206.76-128.37,192.52-252.96c-7.26-63.53-38-114.77-89.23-153.41
		c-17.41-13.13-40.11-9.97-52.86,6.47c-13.2,17.03-10.41,39.4,6.72,53.56c2.4,1.99,4.92,3.83,7.3,5.85
		c66.49,56.2,72.24,155.62,12.7,219.15c-59.22,63.19-160,64.03-220.51,1.85c-62.62-64.35-55.74-167.1,14.38-224.26
		c7.57-6.17,14.25-15.44,17.34-24.61c5.15-15.28-2.94-32.05-16.24-40.4c-13.13-8.25-30.4-7.53-43.86,2.76
		C66.61,132.94,37.28,192.24,33.77,266.86z"/>
	<path display="inline" d="M270.87,4c21.93,8.37,30.32,24.08,29.93,47.51c-0.98,59.77-0.24,119.56-0.39,179.34
		c-0.05,17.98-11.05,32.32-27.62,37.13c-16,4.65-33.52-1.67-42.18-16.65c-3.46-5.99-5.7-13.6-5.74-20.49
		c-0.43-62.54-0.18-125.09-0.29-187.64c-0.04-20.68,12.1-31.89,29.64-39.21C259.77,4,265.32,4,270.87,4z"/>
	<path display="inline" d="M33.77,266.86c3.51-74.62,32.84-133.92,91.01-178.39c13.45-10.29,30.73-11.01,43.86-2.76
		c13.3,8.35,21.39,25.12,16.24,40.4c-3.09,9.17-9.77,18.44-17.34,24.61c-70.12,57.16-77,159.91-14.38,224.26
		c60.51,62.18,161.29,61.34,220.51-1.85c59.54-63.53,53.79-162.95-12.7-219.15c-2.38-2.01-4.9-3.86-7.3-5.85
		c-17.12-14.16-19.92-36.53-6.72-53.56c12.75-16.44,35.45-19.61,52.86-6.47c51.23,38.65,81.97,89.88,89.23,153.41
		c14.24,124.58-68.53,232.48-192.52,252.96C170.59,515.26,46.48,419.41,35.44,292.77C34.63,283.49,34.23,274.17,33.77,266.86z"/>
</g>
<g display="none">
	<path fill="#FFFFFF" d="M0,520C0,346.7,0,173.34,0,0c173.35,0,346.67,0,520,0c0,173.31,0,346.6,0,520C346.66,520,173.32,520,0,520z
		 M429.51,276.07c0-1.69,0-2.79,0-3.9c0-80,0-160-0.01-240c0-1.91-0.03-3.82-0.15-5.73c-0.69-10.96-7.59-19.17-18.3-21.5
		c-2.69-0.58-5.51-0.77-8.27-0.77C282.76,4.14,162.75,4.14,42.73,4.15c-17.74,0-29.78,12.01-29.79,29.72
		c-0.01,150.27-0.01,300.54,0.01,450.81c0,1.82-0.01,3.67,0.28,5.45c2.39,14.58,13.72,24.26,28.7,24.26
		c85.54,0.04,171.08,0.02,256.62,0.01c0.63,0,1.27-0.12,2.39-0.23c-4.76-3.74-9.12-7.15-13.48-10.58
		c-7.3-5.74-13.77-12.24-18.1-20.57c-1.02-1.97-2.15-2.63-4.38-2.62c-71.56,0.07-143.12,0.06-214.68,0.06c-1.09,0-2.18,0-3.22,0
		c0-147.63,0-294.88,0-442.15c116.2,0,232.18,0,348.45,0c0,76.54,0,152.93,0,229.12c5.98,0.69,11.68,1.17,17.31,2.06
		C418.61,270.4,424.18,272.03,429.51,276.07z M505.96,404.12c0-3.13,0.04-6.25-0.01-9.38c-0.07-4.54-2.96-7.47-7.51-7.57
		c-3.56-0.08-7.12,0.08-10.68-0.05c-5.25-0.19-9.1-2.74-11.21-7.54c-2.27-5.16-4.45-10.36-6.4-15.64
		c-1.76-4.76-1.01-9.26,2.59-13.03c2.34-2.45,4.8-4.78,7.17-7.2c3.59-3.68,3.66-7.84,0.08-11.5c-4.19-4.29-8.43-8.52-12.71-12.71
		c-3.69-3.6-7.72-3.55-11.46,0.08c-2.49,2.42-4.84,4.99-7.4,7.34c-3.8,3.49-8.24,4.29-13.04,2.39c-5-1.98-9.95-4.06-14.89-6.18
		c-5.11-2.19-7.91-6.05-7.99-11.7c-0.04-3.3,0.05-6.6-0.03-9.9c-0.12-5.37-2.95-8.14-8.29-8.17c-5.82-0.03-11.64-0.03-17.45,0
		c-5.45,0.03-8.27,2.88-8.33,8.41c-0.04,3.3,0.05,6.6-0.02,9.9c-0.12,5.42-2.81,9.21-7.69,11.36c-5,2.2-10.04,4.29-15.13,6.27
		c-4.89,1.9-9.39,1.06-13.22-2.61c-2.51-2.4-4.87-4.95-7.39-7.34c-3.49-3.31-7.66-3.28-11.1,0.1c-4.27,4.2-8.5,8.45-12.69,12.73
		c-3.56,3.63-3.55,7.82-0.01,11.5c2.41,2.5,4.97,4.86,7.32,7.42c3.42,3.72,4.26,8.11,2.47,12.81c-1.97,5.18-4.11,10.31-6.3,15.41
		c-2.16,5.03-6.08,7.67-11.56,7.83c-3.38,0.1-6.77-0.02-10.16,0.03c-4.84,0.07-7.8,2.96-7.85,7.8c-0.07,6.17-0.07,12.33,0,18.5
		c0.06,4.69,3.01,7.57,7.71,7.66c3.39,0.06,6.77,0,10.16,0.02c5.36,0.03,9.68,2.94,11.75,7.93c1.99,4.8,3.94,9.63,5.94,14.43
		c2.25,5.41,1.37,10.22-2.7,14.34c-2.2,2.22-4.44,4.41-6.62,6.64c-3.71,3.79-3.77,7.94-0.1,11.68c4.14,4.21,8.32,8.38,12.52,12.53
		c3.68,3.63,7.76,3.65,11.47,0.08c2.44-2.35,4.76-4.82,7.21-7.16c3.9-3.73,8.42-4.61,13.43-2.59c4.9,1.98,9.76,4.07,14.65,6.07
		c5.34,2.18,7.96,6.21,8.11,11.89c0.09,3.47-0.05,6.95,0.06,10.42c0.14,4.63,2.98,7.44,7.58,7.49c6.16,0.07,12.33,0.06,18.5,0.01
		c4.84-0.04,7.79-2.98,7.88-7.79c0.07-3.39,0-6.77,0.02-10.16c0.03-5.53,2.95-9.72,8.13-11.85c4.81-1.97,9.61-3.98,14.4-6
		c5.02-2.12,9.95-1.19,13.87,2.69c2.34,2.32,4.63,4.71,6.99,7.01c3.61,3.52,7.66,3.57,11.26,0.06c4.35-4.24,8.65-8.54,12.9-12.89
		c3.39-3.48,3.38-7.62,0.04-11.12c-2.4-2.51-4.96-4.86-7.35-7.39c-3.63-3.85-4.43-8.37-2.57-13.25c1.98-5.18,4.09-10.32,6.31-15.4
		c2.15-4.91,6.03-7.49,11.4-7.63c3.47-0.09,6.95,0.04,10.42-0.04c4.52-0.11,7.41-3.05,7.5-7.6
		C506.01,410.37,505.95,407.24,505.96,404.12z M157.43,233.62c65.22,0,130.2,0,195.27,0c0-11.35,0-22.5,0-33.71
		c-65.18,0-130.17,0-195.27,0C157.43,211.2,157.43,222.3,157.43,233.62z M157.49,148.52c65.17,0,130.15,0,195.24,0
		c0-11.31,0-22.45,0-33.69c-65.16,0-130.13,0-195.24,0C157.49,126.06,157.49,137.14,157.49,148.52z M293.3,284.98
		c-45.39,0-90.51,0-135.78,0c0,11.3,0,22.45,0,33.71c45.32,0,90.5,0,135.78,0C293.3,307.42,293.3,296.33,293.3,284.98z
		 M267.77,369.97c-36.88,0-73.49,0-110.25,0c0,11.29,0,22.44,0,33.7c36.8,0,73.48,0,110.25,0
		C267.77,392.41,267.77,381.32,267.77,369.97z M123.23,233.68c0-11.43,0-22.57,0-33.81c-11.31,0-22.44,0-33.66,0
		c0,11.36,0,22.56,0,33.81C100.87,233.68,111.95,233.68,123.23,233.68z M89.5,114.8c0,11.32,0,22.47,0,33.72
		c11.32,0,22.47,0,33.73,0c0-11.31,0-22.45,0-33.72C111.99,114.8,100.9,114.8,89.5,114.8z M123.25,318.73c0-11.41,0-22.5,0-33.74
		c-11.31,0-22.46,0-33.76,0c0,11.3,0,22.46,0,33.74C100.8,318.73,111.95,318.73,123.25,318.73z M123.26,370c-11.3,0-22.45,0-33.68,0
		c0,11.31,0,22.52,0,33.63c11.39,0,22.54,0,33.68,0C123.26,392.32,123.26,381.24,123.26,370z"/>
	<path display="inline" d="M429.51,276.07c-5.33-4.04-10.9-5.66-16.66-6.57c-5.64-0.89-11.34-1.37-17.31-2.06
		c0-76.19,0-152.58,0-229.12c-116.27,0-232.25,0-348.45,0c0,147.26,0,294.52,0,442.15c1.03,0,2.12,0,3.22,0
		c71.56,0,143.12,0.01,214.68-0.06c2.22,0,3.36,0.66,4.38,2.62c4.33,8.32,10.8,14.83,18.1,20.57c4.35,3.43,8.72,6.84,13.48,10.58
		c-1.12,0.11-1.76,0.23-2.39,0.23c-85.54,0.01-171.08,0.03-256.62-0.01c-14.98-0.01-26.31-9.69-28.7-24.26
		c-0.29-1.79-0.28-3.63-0.28-5.45c-0.01-150.27-0.01-300.54-0.01-450.81c0-17.71,12.05-29.72,29.79-29.72
		c120.02-0.01,240.03-0.01,360.05,0.03c2.76,0,5.58,0.18,8.27,0.77c10.71,2.33,17.61,10.54,18.3,21.5c0.12,1.91,0.15,3.82,0.15,5.73
		c0.01,80,0.01,160,0.01,240C429.51,273.27,429.51,274.38,429.51,276.07z"/>
	<path display="inline" d="M505.96,404.12c0,3.13,0.05,6.25-0.01,9.38c-0.09,4.55-2.98,7.5-7.5,7.6c-3.47,0.08-6.95-0.04-10.42,0.04
		c-5.38,0.14-9.26,2.72-11.4,7.63c-2.22,5.08-4.33,10.22-6.31,15.4c-1.86,4.88-1.06,9.41,2.57,13.25c2.38,2.52,4.95,4.88,7.35,7.39
		c3.34,3.51,3.35,7.64-0.04,11.12c-4.24,4.35-8.54,8.65-12.9,12.89c-3.6,3.51-7.65,3.45-11.26-0.06c-2.36-2.3-4.65-4.69-6.99-7.01
		c-3.92-3.88-8.85-4.81-13.87-2.69c-4.79,2.02-9.59,4.03-14.4,6c-5.18,2.13-8.1,6.33-8.13,11.85c-0.02,3.39,0.05,6.78-0.02,10.16
		c-0.1,4.81-3.04,7.75-7.88,7.79c-6.16,0.06-12.33,0.06-18.5-0.01c-4.6-0.05-7.44-2.86-7.58-7.49c-0.11-3.47,0.04-6.95-0.06-10.42
		c-0.15-5.67-2.78-9.71-8.11-11.89c-4.89-2-9.75-4.09-14.65-6.07c-5.01-2.03-9.53-1.14-13.43,2.59c-2.45,2.34-4.77,4.81-7.21,7.16
		c-3.71,3.57-7.79,3.55-11.47-0.08c-4.21-4.14-8.39-8.32-12.52-12.53c-3.67-3.74-3.62-7.89,0.1-11.68c2.19-2.23,4.43-4.42,6.62-6.64
		c4.07-4.11,4.95-8.92,2.7-14.34c-2-4.8-3.95-9.63-5.94-14.43c-2.07-4.99-6.39-7.9-11.75-7.93c-3.39-0.02-6.77,0.04-10.16-0.02
		c-4.7-0.08-7.65-2.97-7.71-7.66c-0.08-6.17-0.08-12.33,0-18.5c0.06-4.84,3.02-7.73,7.85-7.8c3.39-0.05,6.78,0.07,10.16-0.03
		c5.48-0.16,9.4-2.8,11.56-7.83c2.19-5.1,4.33-10.22,6.3-15.41c1.79-4.7,0.95-9.09-2.47-12.81c-2.35-2.56-4.91-4.92-7.32-7.42
		c-3.55-3.68-3.55-7.87,0.01-11.5c4.2-4.28,8.42-8.53,12.69-12.73c3.44-3.38,7.61-3.41,11.1-0.1c2.52,2.39,4.89,4.94,7.39,7.34
		c3.83,3.67,8.32,4.51,13.22,2.61c5.09-1.98,10.14-4.07,15.13-6.27c4.88-2.15,7.57-5.95,7.69-11.36c0.07-3.3-0.01-6.6,0.02-9.9
		c0.06-5.53,2.88-8.38,8.33-8.41c5.82-0.03,11.64-0.03,17.45,0c5.34,0.03,8.17,2.8,8.29,8.17c0.07,3.3-0.02,6.6,0.03,9.9
		c0.08,5.65,2.88,9.5,7.99,11.7c4.94,2.12,9.89,4.21,14.89,6.18c4.8,1.9,9.24,1.1,13.04-2.39c2.56-2.35,4.91-4.92,7.4-7.34
		c3.74-3.63,7.77-3.68,11.46-0.08c4.28,4.19,8.53,8.42,12.71,12.71c3.57,3.66,3.51,7.82-0.08,11.5c-2.37,2.42-4.83,4.75-7.17,7.2
		c-3.6,3.77-4.35,8.26-2.59,13.03c1.95,5.28,4.14,10.49,6.4,15.64c2.11,4.81,5.97,7.35,11.21,7.54c3.56,0.13,7.12-0.03,10.68,0.05
		c4.55,0.1,7.44,3.03,7.51,7.57C506,397.86,505.96,400.99,505.96,404.12z M395.65,361.61c-23.61-0.01-42.5,18.91-42.5,42.55
		c0.01,23.59,19,42.56,42.55,42.52c23.52-0.04,42.49-19.12,42.45-42.7C438.12,380.62,419.05,361.62,395.65,361.61z"/>
	<path display="inline" d="M157.43,233.62c0-11.32,0-22.42,0-33.71c65.1,0,130.09,0,195.27,0c0,11.21,0,22.36,0,33.71
		C287.63,233.62,222.65,233.62,157.43,233.62z"/>
	<path display="inline" d="M157.49,148.52c0-11.37,0-22.46,0-33.69c65.11,0,130.08,0,195.24,0c0,11.24,0,22.38,0,33.69
		C287.65,148.52,222.67,148.52,157.49,148.52z"/>
	<path display="inline" d="M293.3,284.98c0,11.36,0,22.45,0,33.71c-45.28,0-90.47,0-135.78,0c0-11.26,0-22.42,0-33.71
		C202.79,284.98,247.92,284.98,293.3,284.98z"/>
	<path display="inline" d="M267.77,369.97c0,11.35,0,22.43,0,33.7c-36.77,0-73.45,0-110.25,0c0-11.26,0-22.41,0-33.7
		C194.28,369.97,230.89,369.97,267.77,369.97z"/>
	<path display="inline" d="M123.23,233.68c-11.28,0-22.35,0-33.66,0c0-11.24,0-22.45,0-33.81c11.22,0,22.35,0,33.66,0
		C123.23,211.12,123.23,222.26,123.23,233.68z"/>
	<path display="inline" d="M89.5,114.8c11.4,0,22.48,0,33.73,0c0,11.27,0,22.41,0,33.72c-11.26,0-22.42,0-33.73,0
		C89.5,137.27,89.5,126.11,89.5,114.8z"/>
	<path display="inline" d="M123.25,318.73c-11.3,0-22.45,0-33.76,0c0-11.28,0-22.43,0-33.74c11.3,0,22.45,0,33.76,0
		C123.25,296.23,123.25,307.31,123.25,318.73z"/>
	<path display="inline" d="M123.26,370c0,11.24,0,22.32,0,33.63c-11.14,0-22.28,0-33.68,0c0-11.11,0-22.31,0-33.63
		C100.81,370,111.96,370,123.26,370z"/>
	<path fill="#FFFFFF" d="M395.65,361.61c23.4,0.01,42.46,19.01,42.5,42.38c0.04,23.57-18.93,42.65-42.45,42.7
		c-23.55,0.04-42.54-18.94-42.55-42.52C353.15,380.52,372.04,361.6,395.65,361.61z"/>
</g>
<g display="none">
	<path fill="#FFFFFF" d="M515,440.85c0,24.05,0,48.1,0,72.15c-169.67,0-339.33,0-509,0C6,344,6,175,6,6c169.67,0,339.33,0,509,0
		c0,86.97,0,173.94,0,260.91c-2.69-5.96-7.28-8.03-13.83-8c-42.66,0.19-85.31,0.1-127.97,0.1c-1.94,0-3.87,0-6.29,0
		c0-2.46,0-4.4,0-6.33c0-42.16,0-84.32,0-126.48c0-11.41-3.3-14.69-14.72-14.69c-60.68,0-121.36,0-182.03,0
		c-12.08,0-15.08,3.04-15.08,15.32c0,34.91,0,69.83,0,104.74c0,1.94,0,3.88,0,6.45c-2.44,0-4.38,0-6.31,0c-42.49,0-84.98,0-127.47,0
		c-10.92,0-14.3,3.32-14.3,14.04c0,60.93,0,121.87,0,182.8c0,10.43,3.49,13.91,13.97,13.91c160.04,0,320.09-0.02,480.13,0.09
		C507.63,448.85,512.32,446.9,515,440.85z M170.01,89.89c60.98,0,121.13,0,181.91,0c-2.3-4.62-4.49-8.64-6.34-12.81
		c-2.52-5.67-6.71-7.94-12.91-7.89c-23.62,0.17-47.23,0.07-70.85,0.07c-24.44,0-48.89,0.04-73.33-0.03
		c-4.47-0.01-8.29,1.19-10.53,5.15C175.21,79.2,172.87,84.26,170.01,89.89z M388.14,237.56c37.5,0,74.51,0,112.01,0
		c-2.17-4.36-4.3-8.09-5.93-12.02c-2.7-6.52-7.41-8.92-14.39-8.87c-28.77,0.2-57.54,0.08-86.31,0.08c-1.75,0-3.5,0-5.38,0
		C388.14,224.07,388.14,230.63,388.14,237.56z M133.73,195.77c-32.03,0-63.56-0.09-95.09,0.16c-2.63,0.02-6.25,1.56-7.66,3.59
		c-3.55,5.15-6.1,10.98-9.29,16.99c37.92,0,74.85,0,112.04,0C133.73,209.61,133.73,202.96,133.73,195.77z"/>
	<path display="inline" d="M515,440.85c-2.68,6.05-7.37,8-13.9,7.99c-160.04-0.11-320.09-0.08-480.13-0.09
		c-10.48,0-13.97-3.48-13.97-13.91c0-60.93,0-121.87,0-182.8c0-10.73,3.38-14.04,14.3-14.04c42.49-0.01,84.98,0,127.47,0
		c1.93,0,3.87,0,6.31,0c0-2.56,0-4.51,0-6.45c0-34.91,0-69.83,0-104.74c0-12.27,3-15.32,15.08-15.32c60.68,0,121.36,0,182.03,0
		c11.42,0,14.71,3.28,14.72,14.69c0.01,42.16,0,84.32,0,126.48c0,1.93,0,3.87,0,6.33c2.41,0,4.35,0,6.29,0
		c42.66,0,85.31,0.09,127.97-0.1c6.55-0.03,11.14,2.04,13.83,8C515,324.89,515,382.87,515,440.85z M454.3,354.07
		c7.34-11.54,8.87-17.45,7.16-27.21c-2.8-16.02-17.78-26.93-34.86-25.41c-15.32,1.37-28.08,15.48-27.88,30.84
		c0.08,6.22,4,10.58,9.79,10.88c5.89,0.31,10.3-3.45,11.19-9.54c0.12-0.81,0.06-1.65,0.21-2.46c1.05-5.54,5.99-9.35,11.39-8.84
		c5.17,0.49,9.17,4.63,9.46,9.77c0.32,5.75-3.2,10.04-9.06,11.03c-1.46,0.25-2.96,0.38-4.38,0.8c-4.53,1.33-7.48,5.28-7.52,9.88
		c-0.03,4.57,2.91,8.65,7.38,9.99c1.57,0.47,3.24,0.58,4.87,0.88c4.96,0.9,8.34,4.54,8.7,9.36c0.38,5.14-2.5,9.41-7.37,10.96
		c-6.62,2.1-12.6-2.38-13.62-10.23c-0.89-6.8-5.29-10.65-11.59-10.15c-5.9,0.47-9.54,5-9.41,11.69
		c0.28,14.46,11.78,27.53,26.25,29.84c15.4,2.45,30.37-6.29,35.29-20.84C464.12,373.95,461.76,363.59,454.3,354.07z M97.44,364.51
		c-0.23-0.51-0.45-1.03-0.68-1.54c3.03-2.77,6.22-5.38,9.05-8.34c11.27-11.82,17.39-25.84,17.47-42.25
		c0.09-17.58-12.63-31.13-30.16-32.29c-16.38-1.08-30.86,11.37-33,28.39c-0.92,7.3,2.62,12.71,8.91,13.65
		c6.18,0.92,10.99-3.34,12.15-10.75c1.09-7,5.26-10.59,11.62-10.01c5.81,0.53,9.63,5.18,9.37,11.8
		c-0.42,10.85-4.75,20.04-12.41,27.7c-8.63,8.62-17.26,17.25-25.94,25.83c-3.64,3.6-5.07,7.74-2.92,12.53
		c2.04,4.55,5.91,6.32,10.83,6.3c13.22-0.06,26.44,0.02,39.66-0.04c7.23-0.03,11.82-4.14,11.88-10.4
		c0.06-6.4-4.32-10.43-11.64-10.56C106.9,364.44,102.17,364.51,97.44,364.51z M261,211.22c0,2.54,0,4.26,0,5.99
		c0,23.69-0.01,47.37,0.01,71.06c0.01,7.95,4.02,12.84,10.48,12.91c6.43,0.06,10.51-4.84,10.62-12.74c0.01-0.66,0-1.32,0-1.97
		c0-32.4,0-64.81,0-97.21c0-1.64,0.05-3.3-0.11-4.93c-0.82-8.29-10.27-12.9-16.48-7.45c-8.28,7.26-15.94,15.27-23.47,23.32
		c-3.52,3.76-2.66,9.88,0.92,13.48c3.59,3.6,9.29,4.07,13.59,1.07C257.84,213.84,259.03,212.79,261,211.22z"/>
	<path display="inline" d="M170.01,89.89c2.86-5.63,5.2-10.68,7.94-15.52c2.24-3.96,6.06-5.16,10.53-5.15
		c24.44,0.07,48.89,0.03,73.33,0.03c23.62,0,47.24,0.1,70.85-0.07c6.2-0.04,10.39,2.22,12.91,7.89c1.85,4.17,4.04,8.19,6.34,12.81
		C291.13,89.89,230.98,89.89,170.01,89.89z"/>
	<path display="inline" d="M388.14,237.56c0-6.93,0-13.5,0-20.81c1.88,0,3.63,0,5.38,0c28.77,0,57.54,0.12,86.31-0.08
		c6.98-0.05,11.69,2.35,14.39,8.87c1.63,3.93,3.76,7.66,5.93,12.02C462.65,237.56,425.63,237.56,388.14,237.56z"/>
	<path display="inline" d="M133.73,195.77c0,7.18,0,13.84,0,20.74c-37.19,0-74.11,0-112.04,0c3.19-6,5.74-11.84,9.29-16.99
		c1.4-2.04,5.03-3.57,7.66-3.59C70.17,195.69,101.7,195.77,133.73,195.77z"/>
	<path fill="#FFFFFF" d="M454.3,354.07c7.47,9.53,9.83,19.88,5.98,31.24c-4.93,14.55-19.89,23.29-35.29,20.84
		c-14.47-2.3-25.96-15.38-26.25-29.84c-0.13-6.69,3.51-11.22,9.41-11.69c6.3-0.5,10.7,3.35,11.59,10.15
		c1.02,7.84,7,12.33,13.62,10.23c4.88-1.55,7.75-5.82,7.37-10.96c-0.36-4.82-3.73-8.46-8.7-9.36c-1.62-0.29-3.3-0.41-4.87-0.88
		c-4.46-1.34-7.41-5.42-7.38-9.99c0.03-4.6,2.98-8.56,7.52-9.88c1.42-0.41,2.91-0.55,4.38-0.8c5.86-0.99,9.38-5.27,9.06-11.03
		c-0.29-5.14-4.29-9.27-9.46-9.77c-5.4-0.51-10.34,3.3-11.39,8.84c-0.15,0.8-0.09,1.65-0.21,2.46c-0.88,6.1-5.3,9.85-11.19,9.54
		c-5.79-0.3-9.71-4.66-9.79-10.88c-0.19-15.36,12.57-29.47,27.88-30.84c17.08-1.53,32.06,9.39,34.86,25.41
		C463.16,336.62,461.64,342.52,454.3,354.07z"/>
	<path fill="#FFFFFF" d="M97.44,364.51c4.73,0,9.46-0.07,14.18,0.02c7.32,0.13,11.7,4.16,11.64,10.56
		c-0.06,6.26-4.66,10.37-11.88,10.4c-13.22,0.06-26.44-0.02-39.66,0.04c-4.92,0.02-8.79-1.75-10.83-6.3
		c-2.15-4.79-0.72-8.93,2.92-12.53c8.68-8.58,17.31-17.21,25.94-25.83c7.67-7.66,12-16.84,12.41-27.7
		c0.26-6.62-3.56-11.27-9.37-11.8c-6.36-0.58-10.53,3.01-11.62,10.01c-1.16,7.41-5.96,11.67-12.15,10.75
		c-6.3-0.94-9.83-6.35-8.91-13.65c2.14-17.02,16.61-29.47,33-28.39c17.53,1.16,30.25,14.71,30.16,32.29
		c-0.08,16.42-6.2,30.43-17.47,42.25c-2.82,2.96-6.02,5.57-9.05,8.34C96.99,363.48,97.22,364,97.44,364.51z"/>
	<path fill="#FFFFFF" d="M261,211.22c-1.97,1.57-3.15,2.62-4.45,3.52c-4.31,3-10.01,2.52-13.59-1.07
		c-3.58-3.59-4.44-9.71-0.92-13.48c7.53-8.06,15.19-16.06,23.47-23.32c6.22-5.45,15.66-0.84,16.48,7.45
		c0.16,1.63,0.11,3.29,0.11,4.93c0.01,32.4,0,64.81,0,97.21c0,0.66,0.01,1.32,0,1.97c-0.11,7.9-4.2,12.8-10.62,12.74
		c-6.46-0.06-10.47-4.96-10.48-12.91c-0.02-23.69-0.01-47.37-0.01-71.06C261,215.49,261,213.76,261,211.22z"/>
</g>
<g>
	<path display="none" fill="#FFFFFF" d="M0,520C0,346.67,0,173.33,0,0c173.33,0,346.67,0,520,0c0,173.33,0,346.67,0,520
		C346.67,520,173.33,520,0,520z M339.43,98.73c-2.63,0.22-7.04,0.57-11.46,0.95c-19.09,1.64-37.71,5.47-55.21,13.42
		c-41.08,18.65-71.01,48.78-90.29,89.44c-6.35,13.4-10.43,27.61-12.55,42.33c-0.76,5.28,0.8,7.24,6.07,7.85
		c3.8,0.44,7.6,0.84,11.41,1.19c16.45,1.52,32.9,3.06,49.35,4.5c15.76,1.38,31.53,2.72,47.31,3.97c16.99,1.35,34,2.52,50.98,3.89
		c2.73,0.22,4.41-0.55,6.02-2.85c12.79-18.22,25.8-36.28,38.59-54.5c17.79-25.33,35.46-50.74,53.16-76.14
		c2.7-3.87,2.42-5.68-1.44-8.46c-2.39-1.72-4.97-3.19-7.55-4.63C398.19,105.33,370.21,100.07,339.43,98.73z M335.69,358.93
		c0.06,0,0.11,0,0.17,0c0-13.57,0.08-27.14-0.03-40.71c-0.09-11.31-0.33-22.61-0.65-33.91c-0.12-4.08-2.23-6.13-6.36-6.48
		c-19.15-1.62-38.31-3.16-57.45-4.77c-15.42-1.3-30.84-2.66-46.26-4.01c-16.46-1.44-32.91-2.98-49.37-4.35
		c-6.54-0.54-8.34,1.29-8.31,7.78c0.15,33.22,8.66,64.09,26.25,92.31c19.16,30.73,45.13,53.75,78.47,68.24
		c17.76,7.71,36.47,11.82,55.56,14.43c4.26,0.58,5.86-0.32,6.62-4.59c0.77-4.35,1.29-8.8,1.31-13.21
		C335.76,406.08,335.69,382.5,335.69,358.93z M515.94,273.43c-0.22-4.43-0.42-8.86-0.67-13.29c-0.09-1.56-0.28-3.12-0.44-4.67
		c-2.99-29.65-12.46-56.92-29.93-81.22c-9.17-12.75-19.13-24.81-31.47-34.68c-6.23-4.98-7.39-4.83-11.91,1.61
		c-24.02,34.24-48,68.5-71.95,102.8c-5.47,7.84-10.76,15.81-16.07,23.77c-2.01,3.01-1.62,4.87,1.24,7.15
		c0.61,0.49,1.24,0.96,1.88,1.41c23.51,16.6,46.96,33.29,70.57,49.76c18.61,12.98,37.41,25.69,56.15,38.49
		c3.21,2.19,4.35,2.12,6.82-0.93c2.01-2.48,3.88-5.16,5.33-8C508.67,329.83,515.95,302.55,515.94,273.43z M66.84,247.46
		c0.18,0,0.37,0,0.55,0c-0.34-31.41-0.63-62.81-1.06-94.22c-0.11-7.86-0.9-8.52-8.89-8.59c-12.01-0.11-24.01-0.11-36.02-0.06
		c-4.17,0.02-8.34,0.33-12.51,0.52c-2.34,0.11-3.7,1.19-3.77,3.71c-0.06,2.08-0.42,4.16-0.42,6.25
		C4.6,214.93,4.49,274.79,4.43,334.65c0,4.43,0.25,8.87,0.66,13.28c0.33,3.59,1.54,4.82,5.13,5.02c6.16,0.35,12.34,0.53,18.51,0.51
		c10.7-0.03,21.39-0.15,32.08-0.5c4.06-0.13,5.23-1.67,5.5-5.81c0.25-3.82,0.5-7.64,0.5-11.47
		C66.86,306.28,66.84,276.87,66.84,247.46z M370.11,414.49c0.05,0,0.1,0,0.15,0c0,20.79-0.06,41.58,0.05,62.38
		c0.02,4.68,0.45,9.38,1,14.04c0.46,3.95,1.49,4.73,5.48,4.54c12.48-0.62,24.73-2.95,36.59-6.64c27.36-8.52,51.94-22.04,72.3-42.53
		c5.01-5.05,9.71-10.43,14.29-15.88c2.25-2.68,1.87-4.17-0.83-6.45c-2.39-2.01-4.87-3.94-7.43-5.74
		c-23.03-16.22-46.06-32.45-69.15-48.59c-14.75-10.31-29.61-20.47-44.44-30.66c-1.25-0.86-2.56-1.92-4.24-0.63
		c-1.78,1.36-3.86,2.05-3.83,5.17C370.18,367.16,370.11,390.82,370.11,414.49z M150.34,266c0-26.88,0-53.76,0-80.63
		c0-3.91-0.93-5.06-4.89-5.89c-1.02-0.21-2.06-0.39-3.09-0.4c-13.48-0.13-26.96-0.29-40.43-0.3c-3.03,0-6.09,0.3-9.07,0.83
		c-3.44,0.61-4.43,2.07-4.43,5.5c0,53.93,0,107.86,0,161.79c0,3.9,0.84,4.89,4.81,5.59c1.2,0.21,2.41,0.45,3.61,0.46
		c13.47,0.16,26.94,0.35,40.41,0.37c3.02,0,6.07-0.47,9.06-0.96c3.02-0.49,4.02-1.88,4.02-4.93
		C150.34,320.28,150.34,293.14,150.34,266z M256.05,109.44c2.55-1.13,4.44-1.94,6.32-2.8c17.07-7.8,34.85-13.29,53.38-16.28
		c1.89-0.31,2.13-1.17,2.12-2.77c-0.05-13.22,0.04-26.43-0.05-39.65c-0.08-12.26-0.23-24.52-0.52-36.77
		c-0.13-5.54-0.45-5.85-5.98-5.9c-15.47-0.13-30.94-0.33-46.4-0.05c-9.39,0.17-8.37-0.79-8.49,8.66
		c-0.34,26.69-0.29,53.38-0.38,80.07C256.04,98.9,256.05,103.85,256.05,109.44z M171.7,199.24c0.16,0.04,0.33,0.07,0.49,0.11
		c0.46-0.81,0.9-1.63,1.37-2.44c5.94-10.11,11.46-20.49,17.91-30.25c10.94-16.56,25.15-30.12,40.99-41.98
		c1.55-1.16,2.15-2.38,2.13-4.34c-0.12-10.44-0.06-20.87-0.11-31.31c-0.01-2.87-0.02-5.75-0.36-8.59c-0.49-4.12-1.92-5.67-5.99-5.81
		c-9.9-0.33-19.81-0.46-29.72-0.49c-6.78-0.02-13.56,0.15-20.33,0.49c-4.08,0.21-5.54,1.86-5.77,5.93c-0.26,4.6-0.5,9.21-0.51,13.81
		c-0.06,34.18-0.07,68.36-0.09,102.54C171.7,197.69,171.7,198.46,171.7,199.24z"/>
	<path d="M339.43,98.73c30.77,1.34,58.75,6.59,84.41,20.97c2.57,1.44,5.16,2.91,7.55,4.63c3.86,2.78,4.13,4.59,1.44,8.46
		c-17.7,25.4-35.37,50.81-53.16,76.14c-12.79,18.22-25.8,36.28-38.59,54.5c-1.61,2.29-3.29,3.07-6.02,2.85
		c-16.99-1.37-33.99-2.55-50.98-3.89c-15.78-1.25-31.55-2.58-47.31-3.97c-16.46-1.44-32.9-2.98-49.35-4.5
		c-3.81-0.35-7.61-0.75-11.41-1.19c-5.27-0.61-6.83-2.57-6.07-7.85c2.12-14.71,6.2-28.92,12.55-42.33
		c19.28-40.67,49.21-70.79,90.29-89.44c17.5-7.94,36.12-11.78,55.21-13.42C332.39,99.3,336.81,98.95,339.43,98.73z"/>
	<path d="M335.69,358.93c0,23.58,0.07,47.15-0.06,70.73c-0.02,4.41-0.54,8.86-1.31,13.21c-0.76,4.26-2.36,5.17-6.62,4.59
		c-19.09-2.61-37.8-6.71-55.56-14.43c-33.34-14.48-59.31-37.5-78.47-68.24c-17.59-28.22-26.1-59.09-26.25-92.31
		c-0.03-6.49,1.76-8.32,8.31-7.78c16.46,1.37,32.91,2.9,49.37,4.35c15.42,1.35,30.84,2.71,46.26,4.01
		c19.15,1.61,38.31,3.15,57.45,4.77c4.13,0.35,6.25,2.39,6.36,6.48c0.32,11.3,0.56,22.61,0.65,33.91
		c0.11,13.57,0.03,27.14,0.03,40.71C335.81,358.93,335.75,358.93,335.69,358.93z"/>
	<path d="M515.94,273.43c0.01,29.11-7.27,56.4-20.45,82.2c-1.45,2.84-3.32,5.52-5.33,8c-2.47,3.05-3.6,3.12-6.82,0.93
		c-18.74-12.8-37.54-25.51-56.15-38.49c-23.61-16.46-47.05-33.16-70.57-49.76c-0.64-0.45-1.27-0.92-1.88-1.41
		c-2.86-2.27-3.25-4.14-1.24-7.15c5.31-7.95,10.6-15.93,16.07-23.77c23.94-34.29,47.93-68.56,71.95-102.8
		c4.52-6.44,5.68-6.59,11.91-1.61c12.34,9.87,22.3,21.93,31.47,34.68c17.47,24.3,26.95,51.57,29.93,81.22
		c0.16,1.56,0.35,3.11,0.44,4.67C515.52,264.57,515.72,269,515.94,273.43z"/>
	<path d="M66.84,247.46c0,29.41,0.02,58.82-0.02,88.23c-0.01,3.82-0.25,7.65-0.5,11.47c-0.27,4.14-1.45,5.68-5.5,5.81
		c-10.69,0.35-21.39,0.46-32.08,0.5c-6.17,0.02-12.35-0.16-18.51-0.51c-3.59-0.21-4.79-1.44-5.13-5.02
		c-0.41-4.41-0.67-8.85-0.66-13.28c0.06-59.86,0.17-119.72,0.29-179.58c0-2.08,0.37-4.16,0.42-6.25c0.07-2.52,1.43-3.59,3.77-3.71
		c4.17-0.2,8.34-0.51,12.51-0.52c12.01-0.05,24.01-0.05,36.02,0.06c7.99,0.07,8.79,0.73,8.89,8.59c0.43,31.4,0.72,62.81,1.06,94.22
		C67.21,247.46,67.03,247.46,66.84,247.46z"/>
	<path d="M370.11,414.49c0-23.66,0.07-47.33-0.09-70.99c-0.02-3.12,2.06-3.81,3.83-5.17c1.68-1.29,2.99-0.23,4.24,0.63
		c14.83,10.19,29.69,20.35,44.44,30.66c23.09,16.13,46.12,32.36,69.15,48.59c2.56,1.8,5.04,3.73,7.43,5.74
		c2.7,2.27,3.08,3.76,0.83,6.45c-4.57,5.46-9.27,10.84-14.29,15.88c-20.36,20.49-44.94,34.01-72.3,42.53
		c-11.86,3.69-24.11,6.02-36.59,6.64c-3.99,0.2-5.01-0.58-5.48-4.54c-0.54-4.66-0.97-9.36-1-14.04c-0.1-20.79-0.05-41.58-0.05-62.38
		C370.21,414.49,370.16,414.49,370.11,414.49z"/>
	<path d="M150.34,266c0,27.14,0,54.28,0,81.42c0,3.05-1,4.43-4.02,4.93c-3,0.49-6.04,0.97-9.06,0.96
		c-13.47-0.02-26.94-0.21-40.41-0.37c-1.21-0.01-2.42-0.25-3.61-0.46c-3.97-0.7-4.81-1.69-4.81-5.59c0-53.93,0-107.86,0-161.79
		c0-3.43,0.99-4.89,4.43-5.5c2.98-0.53,6.04-0.83,9.07-0.83c13.48,0.01,26.96,0.17,40.43,0.3c1.03,0.01,2.08,0.19,3.09,0.4
		c3.95,0.83,4.89,1.98,4.89,5.89C150.34,212.25,150.34,239.12,150.34,266z"/>
	<path d="M256.05,109.44c0-5.59-0.01-10.54,0-15.49c0.09-26.69,0.04-53.38,0.38-80.07c0.12-9.45-0.91-8.49,8.49-8.66
		c15.46-0.28,30.94-0.08,46.4,0.05c5.52,0.05,5.84,0.36,5.98,5.9c0.29,12.25,0.44,24.51,0.52,36.77c0.08,13.21,0,26.43,0.05,39.65
		c0.01,1.6-0.23,2.47-2.12,2.77c-18.53,2.99-36.31,8.47-53.38,16.28C260.5,107.49,258.6,108.31,256.05,109.44z"/>
	<path d="M171.7,199.24c0-0.78,0-1.56,0-2.33c0.02-34.18,0.03-68.36,0.09-102.54c0.01-4.6,0.24-9.21,0.51-13.81
		c0.23-4.07,1.7-5.72,5.77-5.93c6.77-0.34,13.55-0.5,20.33-0.49c9.91,0.03,19.82,0.16,29.72,0.49c4.07,0.14,5.5,1.69,5.99,5.81
		c0.34,2.84,0.35,5.72,0.36,8.59c0.05,10.44-0.01,20.87,0.11,31.31c0.02,1.96-0.58,3.18-2.13,4.34
		c-15.84,11.86-30.05,25.42-40.99,41.98c-6.45,9.77-11.97,20.14-17.91,30.25c-0.47,0.8-0.92,1.62-1.37,2.44
		C172.03,199.31,171.86,199.28,171.7,199.24z"/>
</g>
</svg>
