<?xml version="1.0" encoding="utf-8"?>
<!-- Generator: Adobe Illustrator 24.1.0, SVG Export Plug-In . SVG Version: 6.00 Build 0)  -->
<svg version="1.1" id="Warstwa_1" xmlns="http://www.w3.org/2000/svg" xmlns:xlink="http://www.w3.org/1999/xlink" x="0px" y="0px"
	 viewBox="0 0 1000 1000" style="enable-background:new 0 0 1000 1000;" xml:space="preserve">
<style type="text/css">
	.st0{display:none;fill:#FEFEFD;}
	.st1{fill:#050505;}
	.st2{fill:#FCFA0C;}
	.st3{display:none;fill:#FCFCFC;}
	.st4{display:none;fill:#FAFAFA;}
</style>
<g>
	<path class="st0" d="M500,999.79c-163.73,0-327.45-0.06-491.18,0.21c-7.38,0.01-8.83-1.45-8.82-8.82
		C0.24,663.72,0.24,336.27,0,8.82C-0.01,1.45,1.45-0.01,8.82,0c327.45,0.24,654.9,0.24,982.36,0c7.38-0.01,8.83,1.45,8.82,8.82
		c-0.24,327.45-0.24,654.9,0,982.35c0.01,7.38-1.44,8.84-8.82,8.82C827.45,999.73,663.73,999.79,500,999.79z M484.34,570.91
		c-3.73-2.7-7.46-5.4-11.19-8.09c1.95-0.82,3.84-1.86,5.86-2.41c32.9-8.97,65.84-17.77,98.71-26.84
		c12.03-3.32,16.8-9.29,15.75-19.47c-0.26-2.54-0.08-4.76,0.19-7.23c3.05-28.28,15.76-52.79,31.36-75.55
		c19.97-29.13,38.39-58.6,43.3-94.47c7.04-51.45-5.66-97.7-39.7-136.69c-40.11-45.94-90.82-66.25-152.28-57.9
		c-39.28,5.34-72.03,23.1-98.44,51.74c-32.14,34.86-47.69,76.37-45.99,124.36c1.24,35.09,12.77,65.93,32.39,94.73
		c21.3,31.27,43.3,62.6,43.35,103c0,2.05,1.01,4.15,1.79,6.14c2.95,7.52,8.98,11.85,16.58,10.94c7.83-0.93,14.32-6.13,15.39-14.41
		c1-7.72,0.98-15.72-0.52-23.57c-7.19-37.77-26.32-69.9-47.92-100.76c-25.28-36.12-34.37-75.05-22.76-118.28
		c18.38-68.45,87.04-115.63,159.22-98.71c71.27,16.71,105.01,71.37,107.26,135.4c1.04,29.61-9.58,57.91-28.14,82.84
		c-22.76,30.57-41.18,63.73-47.74,102.06c-0.83,4.87-3.89,5.72-7.11,6.59c-45.57,12.42-91.17,24.7-136.76,37.01
		c-28.2-9.72-57.54-13.96-86.88-18.27c7.77-7.93,15.55-15.85,23.29-23.81c3.23-3.32,6.72-6.38,8.86-10.68
		c4.26-8.57,2.39-16.06-4.34-22.14c-6.13-5.53-16.41-4.36-23.24,2.48c-16.7,16.72-33.19,33.64-49.76,50.49
		c-24.23-3.31-48.73-1.71-72.97-3.97c-14.7-1.37-22.81,4.62-29.78,16.91c-30.43,53.6-61.49,106.84-92.53,160.09
		c-25.09,43.04-51.3,85.45-71.95,130.93c-6.63,14.6-1.59,23.2,14.71,23.26c12.17,0.04,24.34-1.39,36.52-1.62
		c97.05-1.88,191.26,14.63,283.4,44.26c23.57,7.58,46.56,16.76,68.67,27.83c54.14,27.09,107.32,25.72,162.28,0.47
		c111.49-51.21,229.33-74.02,351.9-72.6c12.52,0.15,25.02,2.01,37.54,2.3c14.21,0.32,20.8-9.8,14.67-22.27
		c-20.08-40.83-39.33-82.07-62.82-121.15c-34.71-57.75-69.01-115.75-103.5-173.63c-4.7-7.89-9.84-14.81-20.57-14.87
		c-25.49-0.12-50.91,1.01-76.29,3.19c-16.38-16.48-32.79-32.93-49.12-49.46c-8.66-8.76-19.4-10.51-26.39-4.09
		c-8.15,7.48-7.86,16.85,1.48,27.24c9.31,10.36,19.07,20.32,28.62,30.45c-36.77,4.72-73.35,10.32-108.04,24.3
		c-6.78,1.87-13.5,3.99-20.35,5.57C528.07,557.69,506.99,567.11,484.34,570.91z M483.22,61.51c-0.02,0-0.05,0-0.07,0
		c0,10.73-0.13,21.46,0.04,32.19c0.17,11.09,8.39,20.49,17.63,20.52c9.48,0.03,17.71-8.97,17.84-20.43
		c0.25-21.82,0.3-43.64-0.02-65.46c-0.16-10.82-8.46-19.34-17.7-19.3c-9.25,0.04-17.33,8.5-17.64,19.22
		C482.97,39.33,483.22,50.42,483.22,61.51z M362.11,163.68c0.17-5.35-1.79-9.51-5.13-12.92c-16.03-16.39-31.96-32.89-48.3-48.96
		c-8.26-8.13-14.95-8.09-22.61-1.27c-7.32,6.51-9.29,16.63-2.57,23.84c16.83,18.07,34.45,35.42,52.02,52.78
		c4.81,4.75,11.21,4.93,16.94,1.63C358.22,175.47,362.61,170.75,362.11,163.68z M721.82,111.05c0.87-7.7-2.33-12.71-9.45-16.17
		c-7.14-3.47-12.91-1.15-17.57,3.51c-16.73,16.72-33.17,33.73-49.42,50.91c-3.97,4.19-6.03,9.43-3.99,15.75
		c4.29,13.32,17.97,17.33,28.92,7.01c16.42-15.47,31.85-31.99,47.67-48.09C721.5,120.38,722.47,115.95,721.82,111.05z
		 M757.05,336.19c11.48,0,22.96,0.15,34.44-0.04c10.66-0.18,16.19-5.48,16.6-15.38c0.48-11.59-4.48-18.78-15.33-19.09
		c-23.3-0.66-46.63-0.61-69.94-0.14c-10.14,0.21-16.29,7.94-16,17.82c0.3,10.09,6.54,16.54,16.88,16.78
		C734.8,336.38,745.93,336.18,757.05,336.19z M246.84,340.39c12.76-1.35,25.59,1.2,38.4-1.8c9.97-2.34,13.6-8.84,12.94-17.73
		c-0.68-9.19-5.82-15.04-16-15.01c-23.26,0.07-46.53,0-69.79,0.03c-9.33,0.01-14.91,4.95-15.84,13.96
		c-0.92,8.91,1.81,15.93,11.92,18.6C221.22,341.81,234.08,339.04,246.84,340.39z"/>
	<path class="st1" d="M330.06,523.08c29.33,4.31,58.68,8.55,86.88,18.26c-12.11,12.55-12.37,16.55-2.08,31.73
		c-4.82-1.31-9.66-2.53-14.45-3.95c-58-17.21-117.77-20.68-177.69-23.11c-5.05-0.21-6.89,2.49-8.93,6.05
		c-33.88,59.11-67.73,118.23-101.81,177.23c-4,6.93-4.12,9.24,5.1,9.61c55.56,2.24,111.07,5.11,166.24,12.7
		c66.74,9.18,132.17,22.93,192.46,54.67c6.17,3.25,6.35,0.57,6.33-4.49c-0.09-28.72,0.03-57.44,0.07-86.17
		c13.53,0.3,26.92-0.7,40.06-4.14c0.01,29.77,0.11,59.55-0.03,89.32c-0.03,5.72-0.37,9.24,7.23,5.17
		c46.96-25.14,97.71-38.6,149.78-47.92c69.7-12.48,140.19-16.36,210.75-19.13c9.01-0.35,11.54-1.35,6.18-10.26
		c-35.1-58.32-69.9-116.82-104.55-175.41c-2.83-4.78-5.97-5.91-11.13-6.01c-42.09-0.82-83.73,3.51-125.29,9.73
		c-23.44,3.51-45.91,10.71-68.79,16.34c2.31-17.77-2.11-21.53-15.68-26.32c34.69-13.98,71.26-19.58,108.03-24.3
		c5.64,5.46,11.06,11.17,16.97,16.33c9.27,8.09,19.35,7.55,26.06-0.85c4.86-6.09,2-13.04,2.38-19.63
		c25.38-2.18,50.8-3.31,76.29-3.19c10.73,0.05,15.87,6.97,20.57,14.87c34.49,57.88,68.79,115.88,103.5,173.63
		c23.49,39.08,42.74,80.33,62.82,121.15c6.13,12.46-0.47,22.59-14.67,22.27c-12.52-0.29-25.02-2.15-37.54-2.3
		c-122.57-1.42-240.4,21.39-351.9,72.6c-54.97,25.25-108.15,26.62-162.28-0.47c-22.11-11.07-45.1-20.25-68.67-27.83
		c-92.14-29.62-186.34-46.14-283.4-44.26c-12.18,0.24-24.35,1.67-36.52,1.62c-16.3-0.06-21.34-8.66-14.71-23.26
		c20.65-45.48,46.86-87.89,71.95-130.93c31.04-53.25,62.1-106.49,92.53-160.09c6.98-12.29,15.08-18.28,29.78-16.91
		c24.24,2.26,48.74,0.66,72.97,3.97c-4.42,11.56-2.93,20.23,4.65,24.9c9.78,6.01,17.58,1.83,24.66-5.29
		C319.45,533.7,324.76,528.39,330.06,523.08z M135.68,770.94c-2.86-0.16-5.73-0.4-8.59-0.47c-12.89-0.31-27.7-4.64-38.15,0.28
		c-10.63,5-12.53,21.5-18.7,32.72c-0.34,0.63-0.55,1.34-0.93,1.94c-4.41,6.88-1.48,8.47,5.45,8.3c35.94-0.91,71.75,1.83,107.3,6.39
		c94.72,12.15,186.55,34.68,273.16,76.47c30.49,14.71,62.61,13.45,93.84,0.29c19.14-8.07,37.51-17.86,57.08-25.01
		c104.4-38.13,212.1-57.9,323.3-58.16c6.65-0.02,9.76-0.79,5.68-8.22c-5.34-9.74-10.25-19.75-14.75-29.9
		c-2.27-5.11-5.32-6.55-10.73-6.38c-76.04,2.47-152.03,5.42-227.06,19.61c-58.22,11.01-114.23,27.95-163.46,62.37
		c-13,9.09-24.38,6.73-36.5-1.66c-32.78-22.69-69.25-37.34-107.45-48.07C296.85,779.44,216.46,773.63,135.68,770.94z"/>
	<path class="st2" d="M414.85,573.08c-10.29-15.18-10.03-19.18,2.08-31.73c45.6-12.31,91.2-24.59,136.77-37.01
		c3.22-0.88,6.28-1.73,7.11-6.59c6.55-38.33,24.98-71.49,47.74-102.06c18.56-24.93,29.19-53.23,28.14-82.84
		c-2.25-64.04-35.99-118.69-107.26-135.4c-72.18-16.93-140.84,30.26-159.22,98.71c-11.61,43.23-2.52,82.16,22.76,118.28
		c21.6,30.86,40.73,62.99,47.92,100.76c1.49,7.85,1.52,15.84,0.52,23.57c-1.07,8.28-7.56,13.48-15.39,14.41
		c-7.6,0.9-13.62-3.43-16.58-10.94c-0.78-1.98-1.78-4.09-1.79-6.14c-0.05-40.4-22.05-71.73-43.35-103
		c-19.62-28.8-31.15-59.63-32.39-94.73c-1.7-48,13.85-89.5,45.99-124.36c26.4-28.64,59.16-46.4,98.44-51.74
		c61.46-8.35,112.17,11.97,152.28,57.9c34.04,38.99,46.74,85.23,39.7,136.69c-4.91,35.87-23.33,65.33-43.3,94.47
		c-15.6,22.76-28.31,47.27-31.36,75.55c-0.27,2.47-0.45,4.68-0.19,7.23c1.05,10.18-3.72,16.15-15.75,19.47
		c-32.87,9.07-65.81,17.88-98.71,26.84c-2.02,0.55-3.91,1.6-5.86,2.41c-1.72,0.12-3.51-0.01-5.16,0.4
		c-15.25,3.74-29.55,10.94-45.43,12.38C419.79,575.36,416.74,576,414.85,573.08z"/>
	<path class="st2" d="M570.7,546.97c13.57,4.79,17.99,8.55,15.68,26.32c-4.38,4.22-9.26,7.15-15.31,8.93
		c-7.99,2.35-16.55,3.53-23.58,8.63c-22.44,4.49-44.56,10.06-65.78,18.81c-2.09,0.31-4.22,0.43-6.25,0.95
		c-16.01,4.12-31.84,9.2-48.05,12.18c-10.98,2.02-17.54-3.78-19.38-13.52c-1.52-8.08,3.97-15.37,13.32-18.99
		c6.19-2.4,13.17-2.3,18.81-6.25c14.72-4.37,29.45-8.75,44.17-13.12c22.65-3.79,43.73-13.21,66-18.36
		C557.19,550.97,563.92,548.85,570.7,546.97z"/>
	<path class="st2" d="M483.22,61.51c0-11.09-0.25-22.18,0.07-33.26c0.32-10.72,8.39-19.18,17.64-19.22
		c9.24-0.04,17.54,8.48,17.7,19.3c0.32,21.81,0.27,43.64,0.02,65.46c-0.13,11.47-8.36,20.47-17.84,20.43
		c-9.24-0.03-17.46-9.43-17.63-20.52c-0.17-10.73-0.04-21.46-0.04-32.19C483.17,61.51,483.2,61.51,483.22,61.51z"/>
	<path class="st2" d="M362.11,163.68c0.5,7.08-3.89,11.8-9.65,15.1c-5.73,3.29-12.13,3.12-16.94-1.63
		c-17.58-17.36-35.19-34.71-52.02-52.78c-6.72-7.21-4.75-17.33,2.57-23.84c7.66-6.82,14.34-6.86,22.61,1.27
		c16.34,16.07,32.28,32.56,48.3,48.96C360.31,154.17,362.28,158.33,362.11,163.68z"/>
	<path class="st2" d="M724.13,518.52c-0.37,6.59,2.48,13.54-2.38,19.63c-6.71,8.4-16.79,8.94-26.06,0.85
		c-5.91-5.16-11.34-10.87-16.97-16.33c-9.55-10.13-19.31-20.1-28.62-30.45c-9.34-10.39-9.63-19.76-1.48-27.24
		c6.99-6.41,17.73-4.67,26.39,4.09C691.34,485.59,707.75,502.04,724.13,518.52z"/>
	<path class="st2" d="M721.82,111.05c0.66,4.9-0.32,9.34-3.84,12.92c-15.82,16.1-31.25,32.62-47.67,48.09
		c-10.95,10.32-24.63,6.31-28.92-7.01c-2.04-6.32,0.03-11.56,3.99-15.75c16.25-17.18,32.69-34.2,49.42-50.91
		c4.66-4.65,10.43-6.98,17.57-3.51C719.49,98.34,722.69,103.34,721.82,111.05z"/>
	<path class="st2" d="M757.05,336.19c-11.12,0-22.25,0.2-33.36-0.06c-10.33-0.24-16.58-6.69-16.88-16.78
		c-0.29-9.88,5.86-17.61,16-17.82c23.3-0.48,46.64-0.52,69.94,0.14c10.86,0.31,15.81,7.5,15.33,19.09
		c-0.41,9.9-5.94,15.21-16.6,15.38C780.01,336.34,768.53,336.19,757.05,336.19z"/>
	<path class="st2" d="M246.83,340.39c-12.75-1.35-25.61,1.42-38.36-1.95c-10.11-2.67-12.84-9.69-11.92-18.6
		c0.93-9.02,6.51-13.95,15.84-13.96c23.26-0.03,46.53,0.05,69.79-0.03c10.18-0.03,15.32,5.82,16,15.01
		c0.66,8.89-2.97,15.4-12.94,17.73C272.44,341.59,259.6,339.04,246.83,340.39z"/>
	<path class="st2" d="M330.06,523.08c-5.3,5.31-10.61,10.61-15.9,15.93c-7.08,7.13-14.88,11.31-24.66,5.29
		c-7.58-4.66-9.06-13.33-4.65-24.9c16.58-16.84,33.07-33.76,49.77-50.48c6.83-6.84,17.11-8.01,23.24-2.48
		c6.73,6.08,8.6,13.57,4.34,22.14c-2.14,4.3-5.62,7.36-8.86,10.68C345.6,507.23,337.82,515.15,330.06,523.08z"/>
	<path class="st1" d="M484.34,570.91c-14.72,4.37-29.45,8.75-44.17,13.12c-5.87-2.81-11.74-5.63-17.61-8.44
		c15.88-1.44,30.18-8.64,45.43-12.38c1.65-0.41,3.44-0.28,5.16-0.4C476.88,565.51,480.61,568.21,484.34,570.91z"/>
	<path class="st3" d="M547.5,590.86c7.03-5.1,15.58-6.28,23.57-8.63c6.04-1.78,10.93-4.71,15.31-8.93
		c22.89-5.63,45.35-12.83,68.79-16.34c41.55-6.22,83.19-10.55,125.29-9.73c5.17,0.1,8.31,1.23,11.13,6.01
		c34.65,58.59,69.45,117.09,104.55,175.41c5.36,8.91,2.83,9.91-6.18,10.26c-70.57,2.77-141.05,6.65-210.75,19.13
		c-52.07,9.32-102.82,22.79-149.78,47.92c-7.6,4.07-7.26,0.55-7.23-5.17c0.13-29.77,0.04-59.55,0.03-89.32
		c20.23-7.07,36.28-19.78,48.33-37.25c7.53-10.91,5.78-21.68-3.19-27.13c-8.98-5.46-17.91-2.65-25.18,8.47
		c-5.04,7.71-11.35,13.67-19.89,17.18c-0.08-8.76-0.17-17.52-0.25-26.28c16.56-6.58,33.99-10.26,51.05-15.14
		c8.25-2.36,12.96-7.92,14.06-15.79c0.95-6.81-2.57-12.55-8.55-16.19c-6-3.65-12.32-2.3-18.66-0.67
		c-11.32,2.91-21.84,8.9-33.93,8.83C533.18,601.96,540.34,596.41,547.5,590.86z"/>
	<path class="st3" d="M422.56,575.59c5.87,2.81,11.74,5.63,17.61,8.44c-5.64,3.95-12.62,3.85-18.81,6.25
		c-9.35,3.62-14.85,10.92-13.32,18.99c1.84,9.75,8.39,15.54,19.38,13.52c16.21-2.98,32.04-8.06,48.05-12.18
		c2.03-0.52,4.16-0.64,6.25-0.95c0.23,3.82,0.47,7.64,0.7,11.46c-20.43,6.09-40.95,11.89-61.25,18.4
		c-11.91,3.81-17.05,14.55-11.22,24.31c13.13,22.03,30.21,39.88,55.9,47.27c5.43,1.56,10.89,3.01,16.33,4.51
		c-0.04,28.72-0.16,57.45-0.07,86.17c0.02,5.06-0.16,7.74-6.33,4.49c-60.3-31.74-125.72-45.49-192.46-54.67
		c-55.16-7.59-110.68-10.45-166.24-12.7c-9.22-0.37-9.11-2.68-5.1-9.61c34.08-58.99,67.93-118.12,101.81-177.23
		c2.04-3.56,3.88-6.25,8.93-6.05c59.93,2.44,119.69,5.9,177.69,23.11c4.78,1.42,9.63,2.64,14.45,3.95
		C416.74,576,419.79,575.36,422.56,575.59z"/>
	<path class="st4" d="M135.68,770.94c80.78,2.69,161.17,8.49,239.49,30.49c38.2,10.73,74.67,25.38,107.45,48.07
		c12.12,8.39,23.51,10.74,36.5,1.66c49.24-34.42,105.24-51.36,163.46-62.37c75.02-14.19,151.02-17.13,227.06-19.61
		c5.41-0.18,8.46,1.26,10.73,6.38c4.5,10.15,9.41,20.16,14.75,29.9c4.07,7.43,0.97,8.2-5.68,8.22
		c-111.2,0.26-218.9,20.03-323.3,58.16c-19.57,7.15-37.94,16.94-57.08,25.01c-31.23,13.16-63.35,14.42-93.84-0.29
		c-86.61-41.79-178.44-64.32-273.16-76.47c-35.55-4.56-71.36-7.3-107.3-6.39c-6.94,0.18-9.86-1.42-5.45-8.3
		c0.38-0.6,0.58-1.31,0.93-1.94c6.17-11.22,8.07-27.72,18.7-32.72c10.45-4.91,25.26-0.59,38.15-0.28
		C129.96,770.54,132.82,770.78,135.68,770.94z"/>
	<path class="st2" d="M482.18,715.61c-5.45-1.5-10.91-2.95-16.33-4.51c-25.69-7.39-42.77-25.24-55.9-47.27
		c-5.82-9.76-0.68-20.5,11.22-24.31c20.3-6.5,40.82-12.3,61.24-18.4c14.46-4.75,29.58-7.42,43.61-13.61
		c12.09,0.07,22.61-5.92,33.93-8.83c6.34-1.63,12.66-2.98,18.66,0.67c5.98,3.64,9.51,9.38,8.55,16.19
		c-1.1,7.86-5.81,13.43-14.06,15.79c-17.07,4.88-34.49,8.56-51.05,15.14c-13.32,3.72-26.64,7.44-39.96,11.16
		c-8.76,2.54-17.52,5.09-27.78,8.07c9.34,7.34,17.72,12.32,27.64,14.42c14.24,1.85,28.21,2.26,40.35-7.37
		c8.54-3.52,14.85-9.48,19.89-17.18c7.27-11.12,16.2-13.93,25.18-8.47c8.97,5.45,10.72,16.22,3.19,27.13
		c-12.06,17.47-28.1,30.18-48.33,37.25C509.1,714.91,495.7,715.91,482.18,715.61z"/>
	<path class="st1" d="M526.02,607.51c-14.02,6.19-29.14,8.86-43.61,13.61c-0.23-3.82-0.46-7.63-0.69-11.45
		c21.22-8.75,43.35-14.32,65.78-18.81C540.34,596.41,533.18,601.96,526.02,607.51z"/>
	<path class="st1" d="M482.09,657.62c13.32-3.72,26.64-7.44,39.96-11.16c0.08,8.76,0.17,17.52,0.25,26.28
		c-12.14,9.64-26.11,9.23-40.35,7.37C481.99,672.61,482.04,665.11,482.09,657.62z"/>
	<path class="st4" d="M482.09,657.62c-0.05,7.49-0.1,14.99-0.15,22.49c-9.92-2.1-18.3-7.08-27.64-14.42
		C464.58,662.7,473.34,660.16,482.09,657.62z"/>
</g>
</svg>
