<?xml version="1.0" encoding="utf-8"?>
<!-- Svg Vector Icons : http://www.onlinewebfonts.com/icon -->
<!DOCTYPE svg PUBLIC "-//W3C//DTD SVG 1.1//EN" "http://www.w3.org/Graphics/SVG/1.1/DTD/svg11.dtd">
<svg version="1.1" xmlns="http://www.w3.org/2000/svg" xmlns:xlink="http://www.w3.org/1999/xlink" x="0px" y="0px" viewBox="0 0 1000 1000" enable-background="new 0 0 1000 1000" xml:space="preserve">
<metadata> Svg Vector Icons : http://www.onlinewebfonts.com/icon </metadata>
<g><path d="M83.5,892V59h686v360.1c17.2,4.9,34.3,14.7,49,22.1V59c0-27-22-49-49-49h-686c-26.9,0-49,22-49,49v833c0,26.9,22.1,49,49,49h426.3c-22.1-14.7-39.2-29.4-56.4-49H83.5z M671.5,279.5c0-14.7-9.8-24.5-24.5-24.5H206c-14.7,0-24.5,9.8-24.5,24.5c0,14.7,9.8,24.5,24.5,24.5h441C661.7,304,671.5,294.2,671.5,279.5z M206,402c-14.7,0-24.5,9.8-24.5,24.5S191.3,451,206,451h196c14.7,0,24.5-9.8,24.5-24.5S416.7,402,402,402H206z M958.2,948.3l-98-98c34.3-41.6,56.3-95.5,56.3-154.3c0-134.8-110.3-245-245-245c-134.8,0-245,110.3-245,245c0,134.7,110.2,245,245,245c58.8,0,112.7-19.6,154.3-56.3l98,98c4.9,4.9,12.3,7.4,17.2,7.4c4.9,0,12.3-2.5,17.2-7.4C967.9,972.8,967.9,958.1,958.2,948.3z M671.5,892c-107.8,0-196-88.2-196-196c0-107.8,88.2-196,196-196c107.8,0,196,88.2,196,196C867.5,803.8,779.3,892,671.5,892z"/></g>
</svg>